<?xml version="1.0" encoding="utf-8"?>
<!-- Generator: Adobe Illustrator 16.0.0, SVG Export Plug-In . SVG Version: 6.00 Build 0)  -->
<!DOCTYPE svg PUBLIC "-//W3C//DTD SVG 1.1//EN" "http://www.w3.org/Graphics/SVG/1.1/DTD/svg11.dtd">
<svg version="1.1" id="Layer_1" xmlns="http://www.w3.org/2000/svg" xmlns:xlink="http://www.w3.org/1999/xlink" x="0px" y="0px"
	 width="50px" height="50px" viewBox="57.916 0.595 50 50" enable-background="new 57.916 0.595 50 50" xml:space="preserve">
<g>
	<g>
		<g>
			<path fill="#D2A709" d="M74.056,22.027c-1.191-1.225-2.859-1.989-4.706-1.992c-0.856,0-1.677,0.168-2.432,0.471l-2.29,10.083
				L74.056,22.027z"/>
		</g>
		<g>
			<path fill="#FFCB40" d="M62.779,26.525l-2.245-0.005l4.09,4.067l2.289-10.083C64.515,21.463,62.816,23.798,62.779,26.525z"/>
		</g>
		<g>
			<path fill="#F89C1C" d="M62.893,40.516l1.731-9.929l-4.09-4.067l-2.613-0.005C58.124,31.759,59.945,36.585,62.893,40.516z"/>
		</g>
		<g>
			<path fill="#F58A1F" d="M62.893,40.516c1.429,1.914,3.131,3.612,5.042,5.043l-3.311-14.972L62.893,40.516z"/>
		</g>
		<g>
			<path fill="#FFCA05" d="M64.624,30.587l3.311,14.972c4.178,3.124,9.353,4.981,14.967,4.981c5.885,0,11.299-2.034,15.563-5.431
				l-2.384-2.455c-2.446,1.244-5.228,1.939-8.155,1.939c-7.56,0-14.243-4.894-17.054-11.591c0.229-0.056,0.452-0.125,0.667-0.203
				L64.624,30.587z"/>
		</g>
		<g>
			<path fill="#FFF100" d="M70.872,33.001c2.886-0.692,5.062-3.289,5.043-6.396c0.005-1.781-0.71-3.396-1.861-4.58l-9.43,8.558
				l6.911,2.212C71.322,32.878,71.1,32.945,70.872,33.001z"/>
		</g>
		<g>
			<path fill="#00ADEE" d="M61.364,24.679c0.213-1.087,0.525-2.124,0.913-3.106l-3.704-1.706c-0.366,1.555-0.594,3.161-0.657,4.81
				L61.364,24.679z"/>
		</g>
		<g>
			<path fill="#005495" d="M62.277,21.572c2.602-6.518,8.959-10.548,16.604-10.55c0.941,0,1.864,0.075,2.758,0.215l3.775-5.449
				l-23.15,5.759c-1.708,2.49-2.976,5.299-3.69,8.322L62.277,21.572z"/>
		</g>
		<g>
			<path fill="#0091C7" d="M62.264,11.545l23.15-5.759L72.013,3.148C68.074,5.06,64.714,7.965,62.264,11.545z"/>
		</g>
		<g>
			<path fill="#1B75BB" d="M85.414,5.788l-8.749-4.347c-1.623,0.416-3.182,0.993-4.655,1.71L85.414,5.788z"/>
		</g>
		<g>
			<path fill="#0091C7" d="M90.248,1.758c-2.322-0.714-4.787-1.107-7.342-1.107c-2.157,0-4.245,0.277-6.241,0.79l8.749,4.347
				L90.248,1.758z"/>
		</g>
		<g>
			<path fill="#004784" d="M81.639,11.237c0.015,0.002,0.023,0.002,0.033,0.005c-0.071,0.376-0.108,0.77-0.108,1.177
				c0.004,3.091,2.145,5.677,5.023,6.377l7.438-3.478c0.438-0.878,0.686-1.862,0.686-2.907c0-0.414-0.05-0.816-0.125-1.208
				l-9.172-5.417L81.639,11.237z"/>
		</g>
		<g>
			<path fill="#005495" d="M93.711,3.103L91.61,6.837c1.533,0.959,2.633,2.528,2.976,4.371l-9.172-5.417l4.839-4.03L93.711,3.103z"
				/>
			<path fill="#005495" d="M88.134,18.99c2.583-0.002,4.815-1.501,5.892-3.672l-7.438,3.478C87.055,18.9,87.547,18.986,88.134,18.99
				z"/>
		</g>
		<g>
			<path fill="#005495" d="M95.456,4.027l-1.421,2.415c1.043,0.846,1.97,1.787,2.774,2.813l5.932,1.181
				C100.757,7.856,98.285,5.674,95.456,4.027z"/>
		</g>
		<g>
			<path fill="#0071BB" d="M100.07,23.784l3.366,4.431l4.281-5.655c-0.563-4.526-2.328-8.68-4.977-12.124L96.81,9.254
				c2.349,2.991,3.628,6.704,3.618,10.945C100.428,21.427,100.305,22.625,100.07,23.784z"/>
		</g>
		<g>
			<path fill="#00B5F0" d="M107.119,31.904c0.516-1.998,0.792-4.088,0.797-6.247c0-1.051-0.076-2.083-0.203-3.101l-4.281,5.655
				L107.119,31.904z"/>
		</g>
		<g>
			<path fill="#44C7F4" d="M103.437,28.212l-6.126,12.942l2.656,2.791c3.425-3.202,5.941-7.357,7.152-12.041L103.437,28.212z"/>
		</g>
		<g>
			<path fill="#009EDA" d="M92.299,42.455c1.753,0,3.335-0.695,4.52-1.821l0.492,0.521l6.121-12.939l-3.363-4.431
				c-0.544,2.702-1.688,5.182-3.283,7.296c-1.171-1.097-2.753-1.777-4.496-1.782c-0.858,0-1.677,0.171-2.429,0.47l1.237,12.564
				C91.487,42.406,91.89,42.451,92.299,42.455z"/>
		</g>
		<g>
			<path fill="#1FC3F3" d="M85.717,35.868c0,3.222,2.317,5.896,5.381,6.464L89.86,29.768C87.434,30.731,85.717,33.093,85.717,35.868
				z"/>
		</g>
	</g>
</g>
</svg>
