<?xml version="1.0" encoding="utf-8"?>
<!-- Generator: Adobe Illustrator 16.0.0, SVG Export Plug-In . SVG Version: 6.00 Build 0)  -->
<!DOCTYPE svg PUBLIC "-//W3C//DTD SVG 1.1//EN" "http://www.w3.org/Graphics/SVG/1.1/DTD/svg11.dtd">
<svg version="1.1" id="Layer_1" xmlns="http://www.w3.org/2000/svg" xmlns:xlink="http://www.w3.org/1999/xlink" x="0px" y="0px"
	 width="112px" height="29px" viewBox="0.5 14.5 112 29" enable-background="new 0.5 14.5 112 29" xml:space="preserve">
<g>
	<g>
		<path fill="#005E9C" d="M71.668,25.692c-1.49-1.628-4.161-2.486-7.552-3.112c-2.194-0.414-2.755-0.77-2.755-1.333v-0.059
			c0-0.504,0.472-0.86,1.51-0.86c1.925,0,4.268,0.623,6.222,2.045l3.377-4.682c-2.399-1.897-5.361-2.845-9.363-2.845
			c-3.872,0-6.537,1.402-7.851,3.532v-3.147H38.367h-0.799H19.226v2.636c-1.811-1.886-4.358-3.08-7.704-3.08
			C5.329,14.789,0.5,19.41,0.5,25.604v0.059c0,6.431,5.007,10.756,10.755,10.756c5.156,0,8.06-2.519,9.808-5.6l-5.719-3.23
			c-0.858,1.542-1.956,2.607-3.911,2.607c-2.281,0-3.881-1.895-3.881-4.593v-0.059c0-2.49,1.541-4.534,3.881-4.534
			c1.896,0,2.993,1.037,3.763,2.519l4.15-2.43h5.983v14.874h6.934V21.1h5.304v14.874h17.836v-1.568
			c2.371,1.295,5.276,1.954,8.414,1.954c4.99,0,8.383-2.14,9.038-5.716C72.11,29.149,71.686,27.47,71.668,25.692z M44.382,20.922
			h9.986c-0.038,0.3-0.06,0.606-0.06,0.919v0.06c0,0.4,0.035,0.774,0.1,1.126H44.382V20.922z M65.922,29.989
			c0,0.563-0.533,0.889-1.777,0.889c-2.429,0-5.008-0.712-7.26-2.429l-1.541,1.837H44.382v-2.253h10.133v-4.552
			c0.883,3.146,4.495,4.262,8.533,5.085c2.223,0.445,2.873,0.77,2.873,1.363V29.989L65.922,29.989z"/>
		<path fill="#005E9C" d="M103.227,15.232h-9.335v6.961c0.334,1.07,0.512,2.207,0.512,3.384c0,1.179-0.178,2.315-0.512,3.384v7.011
			h6.935v-5.629h2.252c5.6,0,9.422-2.666,9.422-7.674v-0.06C112.5,17.692,108.737,15.232,103.227,15.232z M105.655,23.115
			c0,1.481-1.187,2.28-2.964,2.28h-1.865v-4.623h1.896c1.839,0,2.934,0.771,2.934,2.281V23.115L105.655,23.115z"/>
	</g>
	<g>
		<path fill="#005E9C" d="M5.605,42.6c-0.853,0-1.486-0.658-1.486-1.491V41.1c0-0.823,0.621-1.499,1.511-1.499
			c0.546,0,0.874,0.183,1.143,0.447l-0.406,0.468c-0.224-0.203-0.451-0.326-0.741-0.326c-0.489,0-0.841,0.404-0.841,0.902V41.1
			c0,0.497,0.343,0.912,0.841,0.912c0.331,0,0.533-0.134,0.762-0.341l0.407,0.409C6.495,42.399,6.164,42.6,5.605,42.6z"/>
		<path fill="#005E9C" d="M8.926,41.658H7.381c0.062,0.285,0.26,0.436,0.542,0.436c0.21,0,0.364-0.065,0.538-0.229l0.36,0.319
			c-0.207,0.256-0.506,0.413-0.907,0.413c-0.667,0-1.159-0.468-1.159-1.146v-0.009c0-0.635,0.451-1.155,1.097-1.155
			c0.743,0,1.081,0.575,1.081,1.205V41.5C8.934,41.563,8.93,41.601,8.926,41.658z M7.853,40.794c-0.26,0-0.43,0.186-0.48,0.472
			h0.949C8.284,40.983,8.118,40.794,7.853,40.794z"/>
		<path fill="#005E9C" d="M10.474,42.549v-1.238c0-0.298-0.142-0.451-0.381-0.451c-0.239,0-0.393,0.153-0.393,0.451v1.238H9.07
			V40.33h0.629v0.313c0.145-0.187,0.332-0.354,0.649-0.354c0.477,0,0.753,0.313,0.753,0.824v1.437H10.474z"/>
		<path fill="#005E9C" d="M12.067,42.586c-0.385,0-0.646-0.153-0.646-0.667v-1.052h-0.265V40.33h0.265v-0.568h0.629v0.568h0.521
			v0.537H12.05v0.947c0,0.146,0.062,0.216,0.203,0.216c0.117,0,0.219-0.029,0.311-0.078v0.505
			C12.431,42.537,12.278,42.586,12.067,42.586z"/>
		<path fill="#005E9C" d="M14.009,40.945c-0.418,0-0.675,0.254-0.675,0.782v0.821h-0.629v-2.22h0.629v0.446
			c0.128-0.307,0.335-0.507,0.708-0.488v0.657L14.009,40.945L14.009,40.945z"/>
		<path fill="#005E9C" d="M15.13,42.6c-0.687,0-1.197-0.512-1.197-1.147v-0.009c0-0.638,0.514-1.155,1.206-1.155
			c0.687,0,1.196,0.51,1.196,1.148v0.008C16.335,42.08,15.822,42.6,15.13,42.6z M15.713,41.443c0-0.327-0.236-0.613-0.583-0.613
			c-0.36,0-0.576,0.277-0.576,0.606v0.008c0,0.325,0.235,0.612,0.584,0.612c0.36,0,0.575-0.276,0.575-0.604V41.443z"/>
		<path fill="#005E9C" d="M18.749,40.237v2.312H18.11v-2.312h-0.881V39.65h2.401v0.587H18.749z"/>
		<path fill="#005E9C" d="M21.783,41.658h-1.545c0.063,0.285,0.261,0.436,0.542,0.436c0.21,0,0.364-0.065,0.539-0.229l0.36,0.319
			c-0.208,0.256-0.505,0.413-0.906,0.413c-0.667,0-1.16-0.468-1.16-1.146v-0.009c0-0.635,0.451-1.155,1.097-1.155
			c0.741,0,1.081,0.575,1.081,1.205V41.5C21.791,41.563,21.787,41.601,21.783,41.658z M20.71,40.794c-0.261,0-0.43,0.186-0.48,0.472
			h0.949C21.141,40.983,20.974,40.794,20.71,40.794z M20.458,40.085l0.468-0.731l0.542,0.233l-0.529,0.498H20.458z"/>
		<path fill="#005E9C" d="M22.974,42.6c-0.667,0-1.155-0.515-1.155-1.147v-0.009c0-0.634,0.485-1.155,1.165-1.155
			c0.418,0,0.678,0.142,0.885,0.372l-0.385,0.415c-0.14-0.148-0.282-0.245-0.505-0.245c-0.314,0-0.538,0.277-0.538,0.606v0.008
			c0,0.34,0.219,0.612,0.563,0.612c0.212,0,0.356-0.092,0.51-0.235l0.369,0.371C23.666,42.429,23.417,42.6,22.974,42.6z"/>
		<path fill="#005E9C" d="M25.362,42.549v-1.238c0-0.298-0.14-0.451-0.38-0.451c-0.241,0-0.395,0.153-0.395,0.451v1.238h-0.628
			V40.33h0.628v0.313c0.146-0.187,0.332-0.354,0.65-0.354c0.477,0,0.754,0.313,0.754,0.824v1.437H25.362z"/>
		<path fill="#005E9C" d="M26.22,40.085v-0.559h0.663v0.559H26.22z M26.236,42.549V40.33h0.629v2.219H26.236z"/>
		<path fill="#005E9C" d="M28.173,42.6c-0.666,0-1.155-0.515-1.155-1.147v-0.009c0-0.634,0.484-1.155,1.163-1.155
			c0.418,0,0.679,0.142,0.887,0.372l-0.385,0.415c-0.141-0.148-0.281-0.245-0.505-0.245c-0.314,0-0.539,0.277-0.539,0.606v0.008
			c0,0.34,0.22,0.612,0.564,0.612c0.211,0,0.356-0.092,0.509-0.235l0.369,0.371C28.865,42.429,28.616,42.6,28.173,42.6z"/>
		<path fill="#005E9C" d="M30.186,42.6c-0.688,0-1.197-0.512-1.197-1.147v-0.009c0-0.638,0.514-1.155,1.206-1.155
			c0.688,0,1.196,0.51,1.196,1.148v0.008C31.39,42.08,30.876,42.6,30.186,42.6z M30.769,41.443c0-0.327-0.235-0.613-0.583-0.613
			c-0.36,0-0.576,0.277-0.576,0.606v0.008c0,0.325,0.236,0.612,0.584,0.612c0.36,0,0.575-0.276,0.575-0.604V41.443z"/>
		<path fill="#005E9C" d="M31.439,41.566v-0.604h1.275v0.605L31.439,41.566L31.439,41.566z"/>
		<path fill="#005E9C" d="M32.937,42.549V39.65h2.187v0.567H33.57v0.588h1.367v0.565H33.57v0.609h1.574v0.566h-2.207V42.549z"/>
		<path fill="#005E9C" d="M36.875,42.549v-0.317c-0.153,0.207-0.364,0.358-0.691,0.358c-0.518,0-1.01-0.405-1.01-1.146v-0.009
			c0-0.74,0.484-1.147,1.01-1.147c0.336,0,0.542,0.152,0.691,0.33v-1.092h0.629v3.023H36.875L36.875,42.549z M36.883,41.435
			c0-0.368-0.244-0.612-0.538-0.612s-0.542,0.24-0.542,0.612v0.009c0,0.369,0.249,0.611,0.542,0.611s0.538-0.242,0.538-0.611V41.435
			z"/>
		<path fill="#005E9C" d="M39.122,42.549v-0.315c-0.145,0.187-0.331,0.356-0.649,0.356c-0.477,0-0.754-0.315-0.754-0.822V40.33
			h0.629v1.236c0,0.299,0.141,0.451,0.381,0.451c0.24,0,0.393-0.152,0.393-0.451V40.33h0.629v2.219H39.122z"/>
		<path fill="#005E9C" d="M41.031,42.6c-0.667,0-1.155-0.515-1.155-1.147v-0.009c0-0.634,0.484-1.155,1.164-1.155
			c0.418,0,0.679,0.142,0.886,0.372l-0.385,0.415c-0.142-0.148-0.282-0.245-0.504-0.245c-0.315,0-0.539,0.277-0.539,0.606v0.008
			c0,0.34,0.22,0.612,0.563,0.612c0.21,0,0.356-0.092,0.509-0.235l0.369,0.371C41.722,42.429,41.474,42.6,41.031,42.6z"/>
		<path fill="#005E9C" d="M43.316,42.549v-0.241c-0.153,0.172-0.364,0.282-0.671,0.282c-0.418,0-0.762-0.239-0.762-0.679v-0.009
			c0-0.483,0.368-0.708,0.895-0.708c0.224,0,0.385,0.038,0.542,0.091v-0.036c0-0.262-0.162-0.406-0.478-0.406
			c-0.239,0-0.409,0.045-0.612,0.119l-0.158-0.479c0.245-0.108,0.484-0.18,0.862-0.18c0.688,0,0.989,0.355,0.989,0.956v1.289H43.316
			L43.316,42.549z M43.329,41.653c-0.109-0.049-0.249-0.082-0.403-0.082c-0.27,0-0.435,0.107-0.435,0.307v0.009
			c0,0.17,0.142,0.27,0.344,0.27c0.294,0,0.494-0.162,0.494-0.389V41.653z"/>
		<path fill="#005E9C" d="M45.182,42.6c-0.667,0-1.155-0.515-1.155-1.147v-0.009c0-0.634,0.484-1.155,1.163-1.155
			c0.418,0,0.679,0.142,0.885,0.372l-0.385,0.415c-0.141-0.148-0.281-0.245-0.505-0.245c-0.314,0-0.538,0.277-0.538,0.606v0.008
			c0,0.34,0.219,0.612,0.563,0.612c0.211,0,0.356-0.092,0.509-0.235l0.368,0.371C45.874,42.429,45.625,42.6,45.182,42.6z"/>
		<path fill="#005E9C" d="M46.18,40.085v-0.559h0.663v0.559H46.18z M46.196,42.549V40.33h0.629v2.219H46.196z"/>
		<path fill="#005E9C" d="M48.176,42.6c-0.688,0-1.198-0.512-1.198-1.147v-0.009c0-0.638,0.514-1.155,1.206-1.155
			c0.688,0,1.196,0.51,1.196,1.148v0.008C49.379,42.08,48.868,42.6,48.176,42.6z M48.759,41.443c0-0.327-0.235-0.613-0.583-0.613
			c-0.36,0-0.576,0.277-0.576,0.606v0.008c0,0.325,0.236,0.612,0.585,0.612c0.36,0,0.576-0.276,0.576-0.604v-0.009H48.759z"/>
		<path fill="#005E9C" d="M50.908,42.549v-1.238c0-0.298-0.141-0.451-0.381-0.451s-0.393,0.153-0.393,0.451v1.238h-0.629V40.33
			h0.629v0.313c0.145-0.187,0.332-0.354,0.649-0.354c0.477,0,0.753,0.313,0.753,0.824v1.437H50.908z"/>
		<path fill="#005E9C" d="M53.052,42.549v-0.241c-0.153,0.172-0.364,0.282-0.671,0.282c-0.418,0-0.762-0.239-0.762-0.679v-0.009
			c0-0.483,0.369-0.708,0.895-0.708c0.225,0,0.385,0.038,0.542,0.091v-0.036c0-0.262-0.162-0.406-0.477-0.406
			c-0.239,0-0.41,0.045-0.612,0.119l-0.158-0.479c0.245-0.108,0.485-0.18,0.862-0.18c0.688,0,0.989,0.355,0.989,0.956v1.289H53.052
			L53.052,42.549z M53.064,41.653c-0.108-0.049-0.249-0.082-0.401-0.082c-0.27,0-0.435,0.107-0.435,0.307v0.009
			c0,0.17,0.14,0.27,0.344,0.27c0.294,0,0.493-0.162,0.493-0.389V41.653z"/>
		<path fill="#005E9C" d="M53.9,42.549v-3.022h0.629v3.022H53.9z"/>
		<path fill="#005E9C" d="M56.798,42.59c-0.439,0-0.882-0.151-1.23-0.463l0.377-0.452c0.261,0.216,0.534,0.354,0.865,0.354
			c0.261,0,0.417-0.104,0.417-0.273v-0.009c0-0.161-0.1-0.243-0.583-0.367c-0.584-0.15-0.961-0.312-0.961-0.887v-0.008
			c0-0.527,0.422-0.874,1.015-0.874c0.422,0,0.782,0.132,1.076,0.367l-0.331,0.481c-0.257-0.18-0.509-0.286-0.753-0.286
			c-0.246,0-0.374,0.111-0.374,0.253v0.008c0,0.19,0.125,0.255,0.625,0.383c0.587,0.151,0.92,0.363,0.92,0.868v0.009
			C57.861,42.267,57.423,42.59,56.798,42.59z"/>
		<path fill="#005E9C" d="M59.406,42.549v-0.315c-0.146,0.187-0.333,0.356-0.65,0.356c-0.476,0-0.754-0.315-0.754-0.822V40.33h0.629
			v1.236c0,0.299,0.143,0.451,0.382,0.451c0.241,0,0.394-0.152,0.394-0.451V40.33h0.629v2.219H59.406z"/>
		<path fill="#005E9C" d="M61.587,42.59c-0.335,0-0.541-0.151-0.691-0.331v0.953h-0.63V40.33h0.63v0.317
			c0.153-0.207,0.365-0.359,0.691-0.359c0.519,0,1.011,0.406,1.011,1.148v0.008C62.598,42.185,62.115,42.59,61.587,42.59z
			 M61.968,41.435c0-0.368-0.247-0.612-0.542-0.612c-0.293,0-0.539,0.244-0.539,0.612v0.009c0,0.369,0.246,0.611,0.539,0.611
			c0.295,0,0.542-0.24,0.542-0.611V41.435z"/>
		<path fill="#005E9C" d="M64.792,41.658h-1.545c0.063,0.285,0.26,0.436,0.542,0.436c0.212,0,0.365-0.065,0.539-0.229l0.36,0.319
			c-0.208,0.256-0.507,0.413-0.908,0.413c-0.665,0-1.158-0.468-1.158-1.146v-0.009c0-0.635,0.45-1.155,1.099-1.155
			c0.74,0,1.079,0.575,1.079,1.205V41.5C64.8,41.563,64.794,41.601,64.792,41.658z M63.72,40.794c-0.264,0-0.432,0.186-0.48,0.472
			h0.947C64.149,40.983,63.984,40.794,63.72,40.794z"/>
		<path fill="#005E9C" d="M66.24,40.945c-0.418,0-0.675,0.254-0.675,0.782v0.821h-0.63v-2.22h0.63v0.446
			c0.129-0.307,0.335-0.507,0.708-0.488v0.657L66.24,40.945L66.24,40.945z"/>
		<path fill="#005E9C" d="M66.347,40.085v-0.559h0.662v0.559H66.347z M66.364,42.549V40.33h0.629v2.219H66.364z"/>
		<path fill="#005E9C" d="M68.343,42.6c-0.688,0-1.195-0.512-1.195-1.147v-0.009c0-0.638,0.513-1.155,1.203-1.155
			c0.689,0,1.196,0.51,1.196,1.148v0.008C69.547,42.08,69.034,42.6,68.343,42.6z M68.927,41.443c0-0.327-0.234-0.613-0.584-0.613
			c-0.358,0-0.576,0.277-0.576,0.606v0.008c0,0.325,0.237,0.612,0.584,0.612c0.36,0,0.576-0.276,0.576-0.604V41.443z"/>
		<path fill="#005E9C" d="M70.975,40.945c-0.417,0-0.674,0.254-0.674,0.782v0.821h-0.629v-2.22h0.629v0.446
			c0.128-0.307,0.335-0.507,0.707-0.488v0.657L70.975,40.945L70.975,40.945z"/>
		<path fill="#005E9C" d="M73.584,42.549v-0.317c-0.153,0.207-0.365,0.358-0.691,0.358c-0.518,0-1.01-0.405-1.01-1.146v-0.009
			c0-0.74,0.483-1.147,1.01-1.147c0.337,0,0.542,0.152,0.691,0.33v-1.092h0.629v3.023H73.584L73.584,42.549z M73.593,41.435
			c0-0.368-0.245-0.612-0.539-0.612s-0.542,0.24-0.542,0.612v0.009c0,0.369,0.248,0.611,0.542,0.611s0.539-0.242,0.539-0.611V41.435
			z"/>
		<path fill="#005E9C" d="M75.532,42.6c-0.688,0-1.195-0.512-1.195-1.147v-0.009c0-0.638,0.513-1.155,1.205-1.155
			c0.687,0,1.194,0.51,1.194,1.148v0.008C76.738,42.08,76.225,42.6,75.532,42.6z M76.116,41.443c0-0.327-0.235-0.613-0.584-0.613
			c-0.359,0-0.575,0.277-0.575,0.606v0.008c0,0.325,0.236,0.612,0.585,0.612c0.358,0,0.574-0.276,0.574-0.604V41.443z"/>
		<path fill="#005E9C" d="M79.247,42.6c-0.896,0-1.535-0.668-1.535-1.491V41.1c0-0.823,0.647-1.499,1.543-1.499
			s1.536,0.666,1.536,1.491V41.1C80.791,41.924,80.142,42.6,79.247,42.6z M80.125,41.1c0-0.498-0.364-0.911-0.878-0.911
			s-0.871,0.405-0.871,0.901v0.01c0,0.497,0.366,0.91,0.879,0.91c0.514,0,0.87-0.405,0.87-0.902V41.1z"/>
		<path fill="#005E9C" d="M83.021,41.658h-1.545c0.064,0.285,0.262,0.436,0.543,0.436c0.212,0,0.363-0.065,0.537-0.229l0.36,0.319
			c-0.205,0.256-0.505,0.413-0.906,0.413c-0.666,0-1.158-0.468-1.158-1.146v-0.009c0-0.635,0.451-1.155,1.097-1.155
			c0.741,0,1.081,0.575,1.081,1.205V41.5C83.03,41.563,83.026,41.601,83.021,41.658z M81.949,40.794
			c-0.261,0-0.431,0.186-0.481,0.472h0.95C82.379,40.983,82.215,40.794,81.949,40.794z"/>
		<path fill="#005E9C" d="M83.943,42.59c-0.31,0-0.656-0.103-0.951-0.335l0.268-0.413c0.241,0.174,0.494,0.264,0.7,0.264
			c0.184,0,0.266-0.065,0.266-0.164v-0.01c0-0.135-0.213-0.183-0.46-0.257c-0.31-0.091-0.661-0.236-0.661-0.666v-0.008
			c0-0.452,0.363-0.705,0.812-0.705c0.282,0,0.59,0.097,0.829,0.257l-0.239,0.436c-0.221-0.129-0.439-0.206-0.603-0.206
			c-0.152,0-0.231,0.064-0.231,0.152v0.009c0,0.124,0.213,0.182,0.451,0.265c0.311,0.103,0.672,0.254,0.672,0.658v0.008
			C84.794,42.366,84.426,42.59,83.943,42.59z"/>
		<path fill="#005E9C" d="M85.62,42.586c-0.384,0-0.646-0.153-0.646-0.667v-1.052h-0.266V40.33h0.266v-0.568h0.629v0.568h0.522
			v0.537h-0.522v0.947c0,0.146,0.063,0.216,0.204,0.216c0.115,0,0.219-0.029,0.311-0.078v0.505
			C85.984,42.537,85.833,42.586,85.62,42.586z"/>
		<path fill="#005E9C" d="M88.258,41.658h-1.544c0.062,0.285,0.262,0.436,0.542,0.436c0.212,0,0.365-0.065,0.538-0.229l0.36,0.319
			c-0.208,0.256-0.505,0.413-0.906,0.413c-0.666,0-1.16-0.468-1.16-1.146v-0.009c0-0.635,0.452-1.155,1.099-1.155
			c0.74,0,1.079,0.575,1.079,1.205V41.5C88.266,41.563,88.261,41.601,88.258,41.658z M87.187,40.794
			c-0.262,0-0.432,0.186-0.48,0.472h0.949C87.616,40.983,87.451,40.794,87.187,40.794z"/>
		<path fill="#005E9C" d="M90.502,41.679h-0.485v0.87h-0.638V39.65h1.185c0.692,0,1.11,0.409,1.11,1.002v0.008
			C91.674,41.331,91.152,41.679,90.502,41.679z M91.027,40.664c0-0.283-0.198-0.438-0.518-0.438h-0.493v0.887h0.506
			c0.318,0,0.505-0.191,0.505-0.44V40.664z"/>
		<path fill="#005E9C" d="M93.006,42.549v-0.241c-0.153,0.172-0.363,0.282-0.67,0.282c-0.42,0-0.764-0.239-0.764-0.679v-0.009
			c0-0.483,0.37-0.708,0.896-0.708c0.224,0,0.385,0.038,0.542,0.091v-0.036c0-0.262-0.162-0.406-0.477-0.406
			c-0.24,0-0.411,0.045-0.612,0.119l-0.157-0.479c0.244-0.108,0.483-0.18,0.861-0.18c0.687,0,0.989,0.355,0.989,0.956v1.289H93.006
			L93.006,42.549z M93.02,41.653c-0.108-0.049-0.249-0.082-0.402-0.082c-0.27,0-0.436,0.107-0.436,0.307v0.009
			c0,0.17,0.143,0.27,0.343,0.27c0.295,0,0.495-0.162,0.495-0.389V41.653z"/>
		<path fill="#005E9C" d="M95.128,40.945c-0.417,0-0.673,0.254-0.673,0.782v0.821h-0.631v-2.22h0.631v0.446
			c0.127-0.307,0.334-0.507,0.707-0.488v0.657L95.128,40.945L95.128,40.945z"/>
		<path fill="#005E9C" d="M96.421,42.549v-0.241c-0.151,0.172-0.363,0.282-0.67,0.282c-0.419,0-0.763-0.239-0.763-0.679v-0.009
			c0-0.483,0.369-0.708,0.895-0.708c0.225,0,0.387,0.038,0.542,0.091v-0.036c0-0.262-0.16-0.406-0.476-0.406
			c-0.241,0-0.409,0.045-0.613,0.119l-0.156-0.479c0.244-0.108,0.485-0.18,0.859-0.18c0.689,0,0.991,0.355,0.991,0.956v1.289H96.421
			L96.421,42.549z M96.433,41.653c-0.106-0.049-0.247-0.082-0.401-0.082c-0.269,0-0.435,0.107-0.435,0.307v0.009
			c0,0.17,0.141,0.27,0.344,0.27c0.295,0,0.492-0.162,0.492-0.389V41.653z"/>
		<path fill="#005E9C" d="M98.644,42.549v-1.238c0-0.298-0.141-0.451-0.382-0.451c-0.239,0-0.393,0.153-0.393,0.451v1.238h-0.631
			V40.33h0.631v0.313c0.144-0.187,0.331-0.354,0.649-0.354c0.477,0,0.754,0.313,0.754,0.824v1.437H98.644z"/>
		<path fill="#005E9C" d="M100.788,42.549v-0.241c-0.152,0.172-0.364,0.282-0.672,0.282c-0.418,0-0.761-0.239-0.761-0.679v-0.009
			c0-0.483,0.369-0.708,0.895-0.708c0.225,0,0.386,0.038,0.542,0.091v-0.036c0-0.262-0.161-0.406-0.476-0.406
			c-0.241,0-0.41,0.045-0.613,0.119l-0.156-0.479c0.243-0.108,0.483-0.18,0.859-0.18c0.689,0,0.989,0.355,0.989,0.956v1.289H100.788
			L100.788,42.549z M100.8,41.653c-0.105-0.049-0.248-0.082-0.401-0.082c-0.27,0-0.435,0.107-0.435,0.307v0.009
			c0,0.17,0.141,0.27,0.345,0.27c0.294,0,0.491-0.162,0.491-0.389V41.653z"/>
		<path fill="#005E9C" d="M103.669,41.658h-1.543c0.061,0.285,0.26,0.436,0.541,0.436c0.211,0,0.363-0.065,0.539-0.229l0.359,0.319
			c-0.208,0.256-0.505,0.413-0.906,0.413c-0.666,0-1.159-0.468-1.159-1.146v-0.009c0-0.635,0.45-1.155,1.098-1.155
			c0.74,0,1.079,0.575,1.079,1.205V41.5C103.677,41.563,103.673,41.601,103.669,41.658z M102.598,40.794
			c-0.262,0-0.431,0.186-0.48,0.472h0.947C103.026,40.983,102.86,40.794,102.598,40.794z"/>
		<path fill="#005E9C" d="M105.219,42.549v-1.238c0-0.298-0.144-0.451-0.383-0.451c-0.24,0-0.394,0.153-0.394,0.451v1.238h-0.628
			V40.33h0.628v0.313c0.146-0.187,0.331-0.354,0.649-0.354c0.477,0,0.754,0.313,0.754,0.824v1.437H105.219z"/>
		<path fill="#005E9C" d="M106.84,42.59c-0.312,0-0.658-0.103-0.952-0.335l0.271-0.413c0.239,0.174,0.491,0.264,0.699,0.264
			c0.181,0,0.265-0.065,0.265-0.164v-0.01c0-0.135-0.216-0.183-0.458-0.257c-0.313-0.091-0.664-0.236-0.664-0.666v-0.008
			c0-0.452,0.364-0.705,0.812-0.705c0.282,0,0.589,0.097,0.828,0.257l-0.239,0.436c-0.22-0.129-0.439-0.206-0.601-0.206
			c-0.153,0-0.232,0.064-0.232,0.152v0.009c0,0.124,0.212,0.182,0.452,0.265c0.31,0.103,0.67,0.254,0.67,0.658v0.008
			C107.688,42.366,107.319,42.59,106.84,42.59z"/>
		<path fill="#005E9C" d="M109.871,41.658h-1.545c0.063,0.285,0.261,0.436,0.543,0.436c0.211,0,0.364-0.065,0.538-0.229l0.359,0.319
			c-0.207,0.256-0.505,0.413-0.907,0.413c-0.664,0-1.158-0.468-1.158-1.146v-0.009c0-0.635,0.45-1.155,1.098-1.155
			c0.742,0,1.08,0.575,1.08,1.205V41.5C109.877,41.563,109.873,41.601,109.871,41.658z M108.798,40.794
			c-0.262,0-0.431,0.186-0.48,0.472h0.949C109.229,40.983,109.063,40.794,108.798,40.794z"/>
	</g>
	<g>
		<g>
			<path fill="#D2A709" d="M79.319,24.109c-0.493-0.507-1.184-0.824-1.948-0.825c-0.354,0-0.694,0.07-1.007,0.195l-0.947,4.175
				L79.319,24.109z"/>
		</g>
		<g>
			<path fill="#FFCB40" d="M74.65,25.971l-0.929-0.002l1.694,1.684l0.946-4.174C75.369,23.875,74.667,24.842,74.65,25.971z"/>
		</g>
		<g>
			<path fill="#F89C1C" d="M74.698,31.764l0.718-4.111l-1.694-1.684l-1.082-0.002C72.724,28.138,73.478,30.136,74.698,31.764z"/>
		</g>
		<g>
			<path fill="#F58A1F" d="M74.698,31.764c0.592,0.792,1.296,1.495,2.087,2.087l-1.369-6.198L74.698,31.764z"/>
		</g>
		<g>
			<path fill="#FFCA05" d="M75.416,27.652l1.369,6.198c1.729,1.294,3.872,2.063,6.197,2.063c2.436,0,4.678-0.842,6.443-2.248
				l-0.987-1.017c-1.013,0.516-2.164,0.803-3.377,0.803c-3.128,0-5.896-2.025-7.06-4.798c0.095-0.023,0.187-0.052,0.276-0.084
				L75.416,27.652z"/>
		</g>
		<g>
			<path fill="#FFF100" d="M78.002,28.652c1.194-0.287,2.096-1.362,2.088-2.648c0.002-0.737-0.294-1.406-0.771-1.896l-3.903,3.543
				l2.861,0.916C78.188,28.601,78.096,28.629,78.002,28.652z"/>
		</g>
		<g>
			<path fill="#00ADEE" d="M74.065,25.207c0.088-0.45,0.217-0.879,0.378-1.286l-1.533-0.706c-0.152,0.644-0.246,1.309-0.272,1.991
				L74.065,25.207z"/>
		</g>
		<g>
			<path fill="#005495" d="M74.443,23.92c1.077-2.698,3.709-4.367,6.874-4.368c0.39,0,0.771,0.031,1.142,0.089l1.564-2.256
				l-9.586,2.385c-0.707,1.03-1.232,2.194-1.527,3.445L74.443,23.92z"/>
		</g>
		<g>
			<path fill="#0091C7" d="M74.438,19.769l9.586-2.385l-5.55-1.092C76.844,17.084,75.452,18.287,74.438,19.769z"/>
		</g>
		<g>
			<path fill="#1B75BB" d="M84.022,17.385l-3.623-1.8c-0.671,0.172-1.316,0.412-1.927,0.708L84.022,17.385z"/>
		</g>
		<g>
			<path fill="#0091C7" d="M86.023,15.717c-0.962-0.296-1.981-0.458-3.039-0.458c-0.894,0-1.758,0.114-2.585,0.327l3.623,1.8
				L86.023,15.717z"/>
		</g>
		<g>
			<path fill="#004784" d="M82.459,19.642c0.006,0.001,0.01,0.001,0.014,0.002c-0.029,0.156-0.045,0.319-0.045,0.487
				c0.002,1.28,0.889,2.351,2.08,2.64l3.079-1.44c0.182-0.364,0.284-0.771,0.284-1.203c0-0.171-0.021-0.338-0.052-0.5l-3.797-2.243
				L82.459,19.642z"/>
		</g>
		<g>
			<path fill="#005495" d="M87.457,16.273l-0.869,1.546c0.634,0.397,1.09,1.047,1.231,1.81l-3.796-2.243l2.002-1.668L87.457,16.273z
				"/>
			<path fill="#005495" d="M85.148,22.852c1.069-0.001,1.993-0.622,2.438-1.521l-3.079,1.44
				C84.701,22.814,84.905,22.85,85.148,22.852z"/>
		</g>
		<g>
			<path fill="#005495" d="M88.18,16.656l-0.589,1c0.433,0.35,0.816,0.74,1.149,1.164l2.455,0.489
				C90.374,18.242,89.35,17.338,88.18,16.656z"/>
		</g>
		<g>
			<path fill="#0071BB" d="M90.09,24.836l1.394,1.835l1.772-2.342c-0.232-1.874-0.963-3.594-2.061-5.02L88.74,18.82
				c0.972,1.238,1.502,2.776,1.498,4.532C90.238,23.86,90.188,24.356,90.09,24.836z"/>
		</g>
		<g>
			<path fill="#00B5F0" d="M93.009,28.198c0.213-0.828,0.327-1.693,0.329-2.586c0-0.435-0.031-0.862-0.084-1.284l-1.772,2.341
				L93.009,28.198z"/>
		</g>
		<g>
			<path fill="#44C7F4" d="M91.483,26.669l-2.536,5.358l1.1,1.156c1.418-1.326,2.46-3.047,2.962-4.985L91.483,26.669z"/>
		</g>
		<g>
			<path fill="#009EDA" d="M86.872,32.566c0.726,0,1.381-0.288,1.872-0.754l0.203,0.215l2.534-5.356l-1.393-1.835
				c-0.225,1.119-0.699,2.146-1.358,3.021c-0.485-0.454-1.141-0.736-1.862-0.738c-0.355,0-0.693,0.071-1.005,0.194l0.512,5.202
				C86.537,32.546,86.703,32.564,86.872,32.566z"/>
		</g>
		<g>
			<path fill="#1FC3F3" d="M84.147,29.839c0.001,1.334,0.96,2.441,2.228,2.677l-0.512-5.202
				C84.858,27.712,84.147,28.69,84.147,29.839z"/>
		</g>
	</g>
</g>
</svg>
